<svg width="185" height="30" viewBox="0 0 185 30" fill="none" xmlns="http://www.w3.org/2000/svg">
<g style="mix-blend-mode:luminosity">
<path fill-rule="evenodd" clip-rule="evenodd" d="M22.7537 4.63291C23.7627 5.13813 28.8078 8.17258 28.8078 8.17258L32.3399 10.4487L35.8709 12.4716C35.8709 12.4716 36.8799 12.9779 36.8799 13.7363C37.1325 14.4957 36.8799 15.0009 36.1234 15.7592C36.1234 15.7592 36.1234 14.7477 35.3659 14.2415C34.8619 13.7363 35.1144 13.9884 34.3569 13.4831C32.5914 12.4716 30.3208 11.207 30.3208 11.207C30.3208 11.207 28.3028 9.94346 27.2938 9.18406C27.2938 9.18406 24.0142 11.7122 23.2577 11.9654C22.5012 12.4706 20.2307 14.2404 19.7267 14.7467C19.2227 14.9998 18.4662 15.7582 18.7177 16.5155C18.4662 16.2645 17.4572 15.504 17.4572 14.9998C17.4572 14.2404 17.7097 13.7352 18.7177 13.2289C19.4752 12.7237 20.9882 11.4591 20.9882 11.4591L23.5102 9.94241L25.0232 8.6778C26.0322 8.17258 25.5272 8.42467 24.7707 7.91945L22.5012 6.40274C22.5012 6.40274 21.2397 5.89648 20.7357 5.39126C19.9782 5.39126 19.7267 4.88604 18.2137 5.89648C17.2047 6.40274 15.4392 7.66631 15.4392 7.66631L12.6646 9.18406L9.8901 10.9539L7.87207 12.2185L5.85404 13.4821C5.85404 13.4821 4.84502 13.7352 4.34 14.2404C4.08852 14.4936 3.5835 16.0113 3.5835 16.0113C3.33098 15.2509 2.57448 13.9873 3.33098 13.4821C3.83497 12.9769 4.08852 12.7237 5.34901 11.9654C6.10551 11.4591 8.88004 9.94241 8.88004 9.94241L13.6726 6.90796C13.6726 6.90796 15.4381 5.64439 16.4471 5.13812C17.2036 4.6329 17.7076 4.37977 18.4652 3.87455C19.4742 3.36828 21.7447 3.62142 22.7537 4.63291ZM37.6364 4.63291C38.3929 4.88604 39.9059 6.15065 40.6635 6.40274C41.1675 6.65482 43.1855 7.91945 43.1855 7.91945C43.1855 7.91945 44.6995 8.93093 46.465 9.94241C47.2215 10.4476 47.7255 10.7018 48.4831 11.206C49.2396 11.7122 50.2486 12.4696 50.2486 12.4696L51.2576 13.481C51.5101 14.2394 51.5101 15.2498 50.7526 15.7571C50.5001 15.7571 50.5001 14.7457 49.9961 14.2394C49.4921 13.7342 49.2396 13.7342 48.4831 13.2279C47.4741 12.4685 46.465 11.9643 44.447 10.6997C43.6895 10.1935 41.42 8.92988 41.42 8.92988L38.3929 7.16005C38.3929 7.16005 35.6184 5.89543 35.3659 5.6423C34.1054 4.88395 33.6014 4.88395 32.8439 5.38917C32.0874 5.89439 31.0784 6.65274 30.5733 7.15901C30.5733 7.15901 29.5643 6.65274 28.8078 6.14752C28.8078 5.89439 30.0693 5.13603 30.0693 5.13603C30.0693 5.13603 30.8269 4.37768 31.5823 4.12455C32.8439 3.3662 32.8439 3.36619 33.3479 3.36619C34.1044 3.36828 35.6184 3.11516 37.6364 4.63291Z" fill="#1C74BB"/>
<path fill-rule="evenodd" clip-rule="evenodd" d="M5.09612 18.7926C5.09612 18.7926 17.7083 26.8845 18.7173 27.3918C19.4748 27.8959 20.7364 27.3918 20.7364 27.3918L23.5109 26.1272L25.2764 24.8625C24.7714 24.6094 23.5109 23.5979 23.5109 23.5979L20.4839 21.8291C20.4839 21.8291 17.2043 19.553 16.1963 19.0468C14.9348 18.2884 15.1873 17.7822 15.1873 15.7592C15.4398 16.5175 16.9528 17.2769 16.9528 17.2769L20.7364 19.8041L24.2674 21.8291L26.7905 23.5979L28.8085 24.8625L32.8445 27.3918C34.105 27.8959 34.6101 27.8959 35.6191 27.3918C37.6371 26.3782 38.3936 25.874 40.4116 24.6094C40.9156 24.3563 46.9697 20.5645 46.9697 20.5645L49.7442 18.7936C49.7442 18.7936 52.7713 16.7707 53.2753 15.2529C53.5278 15.7592 53.7792 17.0238 53.5278 17.529C53.2753 18.5426 52.0137 19.2999 51.0058 20.0583L46.2132 23.0917L40.1591 26.8855C40.1591 26.8855 36.627 28.9085 36.1231 29.1616C34.8626 29.6679 33.8525 30.1731 31.8355 28.9085L30.574 28.1501L28.3035 26.6324L27.0419 25.874C26.2854 26.3782 20.4839 29.6679 20.4839 29.6679C20.4839 29.6679 19.2234 29.9189 17.2043 28.6543C16.1953 28.1501 10.1412 24.1042 10.1412 24.1042L4.59214 20.8145C4.59214 20.8145 1.81761 19.0457 1.56509 18.7915C0.808593 17.5269 0.808594 15.7581 0.808594 15.7581C1.56405 16.7696 5.09612 18.7926 5.09612 18.7926Z" fill="#1C74BB"/>
<path fill-rule="evenodd" clip-rule="evenodd" d="M39.15 15.5048C39.15 15.5048 39.4015 17.5278 38.8975 17.7809C38.3935 18.2872 37.132 19.2987 37.132 19.2987L34.3575 21.0675C34.3575 21.0675 31.583 22.8384 30.8265 23.5967L29.0609 22.5852L33.8535 19.2976C33.8514 19.2987 38.645 16.7695 39.15 15.5048ZM66.3914 13.735V5.13792H71.1839C75.22 5.13792 76.733 6.40254 76.733 9.18386C76.733 10.4474 76.733 13.735 72.1919 13.735H66.3914ZM66.3914 18.7924H73.4545C81.2741 18.7924 82.7871 12.2183 82.7871 9.43698C82.7871 3.62121 79.5075 0.081543 73.7059 0.081543H60.3373V29.4146H66.3914V18.7924ZM88.8422 16.2653C89.0947 13.4829 90.6077 11.7131 93.1297 11.7131C95.1477 11.7131 97.4183 12.9767 97.6708 16.2653H88.8422ZM97.4183 23.0904C96.9153 24.6082 95.4003 25.3666 93.6358 25.3666C89.0947 25.3666 88.8422 21.8279 88.5897 20.057H103.473V19.0456C103.473 9.18386 97.6708 7.16089 93.3833 7.16089C83.7971 7.16089 83.0406 15.5048 83.0406 18.0341C83.0406 27.1374 87.5817 29.9177 93.6358 29.9177C97.4183 29.9177 101.706 28.1489 103.221 23.0904H97.4183ZM113.31 7.66715H116.842V11.7131H113.31V23.5978C113.31 24.8624 113.31 25.3666 115.581 25.3666H116.842V29.6667H113.564C108.517 29.6667 107.508 27.8958 107.508 24.8613V11.7131H104.735V7.66715H107.508V1.85138H113.311V7.66715H113.31ZM120.877 7.66715H126.426V11.46C127.688 9.1849 128.949 7.16193 132.481 7.16193H133.49V12.9777H131.724C127.436 12.9777 126.68 15.759 126.68 18.0351V29.4146H120.877V7.66715ZM155.183 29.4135H149.633V26.378C148.372 28.6541 146.101 29.9187 143.075 29.9187C138.788 29.9187 135.508 27.6427 135.508 22.08V7.66715H141.311V21.0685C141.311 24.6092 143.329 25.1155 145.093 25.1155C146.86 25.1155 149.381 24.104 149.381 20.3102V7.66715H155.184V29.4135H155.183ZM170.822 14.2413C170.569 12.9777 170.065 11.46 166.787 11.46C163.761 11.46 163.255 12.7246 163.255 13.4829C163.255 17.0236 176.877 14.4944 176.877 22.5863C176.877 28.9073 170.822 29.9187 167.543 29.9187C162.499 29.9187 157.201 28.15 156.95 22.5863H163.003C163.003 24.3551 164.012 25.6197 167.544 25.6197C170.57 25.6197 171.329 24.104 171.329 23.3436C171.329 19.8029 157.707 22.5852 157.707 14.2402C157.707 11.2058 159.725 7.15984 166.535 7.15984C170.823 7.15984 175.869 8.17132 176.373 14.2402H170.822V14.2413ZM180.156 10.7016V9.68908H180.659C180.912 9.68908 181.418 9.94221 181.418 10.1953C181.418 10.7016 181.165 10.7016 180.913 10.7016H180.156ZM180.156 11.46H180.409L181.418 12.9777H182.427L181.418 11.2079C181.921 11.2079 182.427 10.9547 182.427 10.1964C182.427 9.43699 181.668 9.1849 180.66 9.1849H179.399V12.9777H180.157V11.46H180.156ZM184.191 11.2068C184.191 8.93177 182.677 7.41402 180.659 7.41402C178.895 7.41402 177.127 8.93177 177.127 11.2068C177.127 13.2298 178.894 14.7475 180.659 14.7475C182.677 14.7475 184.191 13.2298 184.191 11.2068ZM183.182 11.2068C183.182 12.7246 182.173 13.735 180.659 13.735C179.398 13.735 178.136 12.7235 178.136 11.2068C178.136 9.43699 179.398 8.42551 180.659 8.42551C182.173 8.42551 183.182 9.43699 183.182 11.2068Z" fill="#1C74BB"/>
</g>
</svg>
