<svg width="48" height="48" viewBox="0 0 48 48" fill="none" xmlns="http://www.w3.org/2000/svg">
<rect width="48" height="48" rx="24" fill="#FFEEF4"/>
<path fill-rule="evenodd" clip-rule="evenodd" d="M19.7723 14H28.228C31.4034 14 34 16.5868 34 19.7469V28.2531C34 31.414 31.4034 34 28.228 34H19.7723C16.597 34 14 31.414 14 28.2531V19.7469C14 16.5868 16.597 14 19.7723 14ZM23.9461 18.6002C27.0318 18.6002 29.5358 21.126 29.5358 24.2385C29.5358 27.3513 27.0318 29.8767 23.9461 29.8767C20.8597 29.8767 18.3561 27.3513 18.3561 24.2385C18.3561 21.126 20.8597 18.6002 23.9461 18.6002ZM23.9461 20.5046C25.9895 20.5046 27.6478 22.177 27.6478 24.2385C27.6478 26.2999 25.9894 27.9727 23.9461 27.9727C21.9021 27.9727 20.2441 26.2999 20.2441 24.2385C20.2441 22.177 21.9021 20.5046 23.9461 20.5046ZM29.3538 17.8188C29.855 17.8188 30.2614 18.2287 30.2614 18.7339C30.2614 19.2395 29.855 19.6494 29.3538 19.6494C28.8529 19.6494 28.4465 19.2395 28.4465 18.7339C28.4465 18.2287 28.8529 17.8188 29.3538 17.8188ZM20.4633 15.6337H27.5378C30.1942 15.6337 32.3668 17.8143 32.3668 20.479V27.6507C32.3668 30.3153 30.1943 32.4956 27.5378 32.4956H20.4633C17.8069 32.4956 15.634 30.3153 15.634 27.6507V20.4789C15.634 17.8143 17.8069 15.6337 20.4633 15.6337Z" fill="#FD2831"/>
</svg>
