<svg width="83" height="50" viewBox="0 0 83 50" fill="none" xmlns="http://www.w3.org/2000/svg">
<path d="M42.4 4.35011C43.4996 4.38351 45.4889 4.58389 47.4028 5.22677C50.4162 6.24535 51.6333 8.70833 51.3228 11.5721C51.1801 12.8745 50.7184 14.1018 50.156 15.3041C49.7447 16.1724 49.3418 17.0323 48.8298 17.8422C47.5874 19.7959 46.1437 21.5826 44.2215 22.9351C43.8353 23.2107 43.4072 23.4194 42.9791 23.6198C41.4431 24.3294 40.0832 23.8201 38.8157 22.9518C36.9523 21.6828 35.5421 19.9796 34.3334 18.101C33.1498 16.2642 32.2013 14.3189 31.7732 12.1648C31.4206 10.4032 31.6305 8.72502 32.7217 7.23054C33.5359 6.11177 34.6859 5.48559 35.9702 5.10153C37.7665 4.56719 39.6132 4.31672 42.4 4.35011ZM33.8129 7.6146C33.7542 7.69809 33.7206 7.73984 33.7038 7.78158C33.0827 9.00889 32.9987 10.3197 33.2757 11.6138C34.048 15.3291 35.9198 18.4517 38.6311 21.09C38.8409 21.2904 39.0592 21.4991 39.3613 21.5826C39.2354 21.3739 39.0927 21.1902 38.9416 21.0148C37.5734 19.4953 36.4402 17.8172 35.5253 15.9887C34.2914 13.509 33.5107 10.9375 33.8717 8.13224C33.8885 7.98196 33.9137 7.83168 33.8129 7.6146ZM43.7514 12.6491C43.7262 12.3235 43.6423 11.9895 43.2645 11.881C43.0043 11.8058 42.7777 11.9144 42.6518 12.1815C42.5091 12.4988 42.5259 12.8161 42.6686 13.125C42.87 13.5508 43.2561 13.6009 43.5583 13.2419C43.701 13.0832 43.743 12.8829 43.7514 12.6491ZM39.0676 9.66012C39.0592 9.21762 38.7654 8.84191 38.4296 8.86696C38.0939 8.88366 37.8504 9.23432 37.8588 9.68517C37.8672 10.1026 38.1442 10.4783 38.4548 10.4783C38.7738 10.4867 39.076 10.0776 39.0676 9.66012ZM35.9954 11.0628C35.987 10.6453 35.7184 10.278 35.4078 10.2696C35.0888 10.2613 34.7279 10.7038 34.7447 11.0795C34.7614 11.5721 35.0049 11.8559 35.391 11.8476C35.7519 11.8392 36.0038 11.5136 35.9954 11.0628ZM40.1588 15.1204C40.1588 15.613 40.3938 15.9386 40.7296 15.9303C41.0569 15.9136 41.3591 15.5295 41.3507 15.1121C41.3507 14.6696 41.0569 14.2939 40.7212 14.3105C40.419 14.3272 40.1588 14.6946 40.1588 15.1204ZM46.5969 15.9887C46.5969 16.3394 46.9159 16.7819 47.1677 16.7735C47.4615 16.7652 47.7973 16.3143 47.7973 15.9136C47.7973 15.4961 47.5287 15.1288 47.2265 15.1121C46.874 15.087 46.5969 15.4711 46.5969 15.9887ZM41.7117 17.3747C41.7117 17.8088 41.9719 18.1177 42.2992 18.101C42.6518 18.0843 42.9036 17.742 42.9036 17.2912C42.9036 16.832 42.6434 16.498 42.2908 16.498C41.9131 16.5147 41.7033 16.8236 41.7117 17.3747ZM36.18 7.6313C36.1968 7.85672 36.2556 8.16564 36.5745 8.34932C36.7592 8.45786 36.9271 8.42446 37.0782 8.29087C37.3384 8.04875 37.4391 7.73984 37.3552 7.38917C37.2796 7.07191 37.1369 6.80474 36.7592 6.80474C36.4318 6.81309 36.18 7.14705 36.18 7.6313ZM49.8202 11.0294C49.8202 10.5952 49.5264 10.2028 49.2075 10.2195C48.8969 10.2279 48.6199 10.6036 48.6199 11.021C48.6199 11.4552 48.9137 11.8476 49.2327 11.8392C49.5432 11.8225 49.8118 11.4385 49.8202 11.0294ZM45.1784 15.0954C45.17 14.6696 44.9014 14.3105 44.5824 14.3105C44.2466 14.3105 43.978 14.6696 43.978 15.1037C43.978 15.5379 44.2634 15.9303 44.5824 15.9219C44.9098 15.9219 45.1868 15.5212 45.1784 15.0954ZM45.7743 10.7538C45.7659 10.3364 45.4973 9.96904 45.1868 9.96069C44.8678 9.95234 44.574 10.328 44.574 10.7538C44.574 11.188 44.8594 11.5804 45.17 11.5804C45.4973 11.5804 45.7743 11.188 45.7743 10.7538ZM36.3227 13.509C36.3143 14.0016 36.5578 14.369 36.9103 14.3773C37.2377 14.3857 37.5063 14.0517 37.5147 13.6176C37.5315 13.0999 37.288 12.766 36.8767 12.766C36.4906 12.766 36.3395 12.9747 36.3227 13.509ZM39.9237 11.2464C39.5964 11.2381 39.3278 11.5804 39.3194 12.0146C39.311 12.4571 39.5796 12.8411 39.907 12.8495C40.2175 12.8578 40.5029 12.4988 40.5197 12.073C40.5281 11.6472 40.2511 11.2548 39.9237 11.2464ZM42.6434 10.2946C42.6518 9.83545 42.3832 9.47644 42.0474 9.47644C41.7284 9.47644 41.4598 9.83545 41.4514 10.2613C41.4431 10.6954 41.7284 11.0878 42.0558 11.0878C42.3832 11.0878 42.635 10.7371 42.6434 10.2946ZM47.4112 12.7075C47.4112 12.2567 47.1342 11.8893 46.8068 11.8977C46.4878 11.906 46.236 12.265 46.236 12.6992C46.236 13.15 46.513 13.5257 46.8404 13.509C47.1426 13.4923 47.4112 13.125 47.4112 12.7075ZM45.2287 18.5101C45.2371 18.0676 44.9517 17.6919 44.6244 17.6919C44.3054 17.7003 44.0452 18.0509 44.0452 18.4851C44.0368 18.9443 44.3054 19.3033 44.6412 19.2949C44.9601 19.2949 45.2203 18.9359 45.2287 18.5101ZM41.762 20.0046C41.762 20.4471 42.0054 20.7978 42.3328 20.8061C42.6686 20.8228 42.954 20.4471 42.954 20.0046C42.954 19.5621 42.6686 19.2031 42.3244 19.2031C42.0306 19.1948 41.7704 19.5705 41.762 20.0046ZM47.7469 9.04229C47.7385 8.60814 47.4783 8.26583 47.1593 8.25748C46.8236 8.25748 46.5634 8.61649 46.5634 9.07569C46.5718 9.51819 46.8236 9.85215 47.151 9.85215C47.4867 9.8605 47.7553 9.49314 47.7469 9.04229ZM39.9909 6.87153C39.9909 7.29734 40.2427 7.66469 40.5617 7.68139C40.8974 7.69809 41.1912 7.32238 41.1912 6.87988C41.1912 6.46243 40.9226 6.09507 40.6037 6.07837C40.2595 6.07002 39.9909 6.41233 39.9909 6.87153ZM37.4223 16.2308C37.4223 16.69 37.6909 17.0407 38.0351 17.0323C38.3625 17.024 38.6059 16.6817 38.6059 16.2392C38.6059 15.78 38.3373 15.421 38.0015 15.4377C37.6742 15.446 37.4223 15.7967 37.4223 16.2308ZM44.5824 7.62295C44.574 7.1888 44.3222 6.83814 44.0032 6.82979C43.6758 6.82144 43.3905 7.2055 43.3905 7.63965C43.3988 8.0571 43.6675 8.41611 43.978 8.42446C44.3222 8.44116 44.5908 8.08215 44.5824 7.62295ZM40.3015 18.4934C40.3015 18.0509 40.058 17.7003 39.7391 17.6919C39.4033 17.6752 39.1179 18.0426 39.1095 18.4851C39.1095 18.9276 39.3865 19.3033 39.7223 19.2949C40.0413 19.2782 40.2931 18.9276 40.3015 18.4934Z" fill="#ED1D30"/>
<path d="M65.2065 39.1739C65.2065 38.2973 65.2316 37.4373 65.1981 36.5774C65.1309 34.44 65.1477 32.2943 64.9798 30.1569C64.9546 29.848 64.8539 29.7395 64.5517 29.7645C64.2999 29.7896 64.0481 29.7562 63.7963 29.7645C63.4941 29.7729 63.3682 29.6143 63.343 29.3304C63.3178 29.0465 63.5025 28.9964 63.7375 28.963C64.9798 28.7543 66.2137 28.5372 67.456 28.3285C67.6407 28.2951 67.8757 28.1949 67.9597 28.4621C68.0268 28.6959 67.9765 28.938 67.7498 29.0883C67.6575 29.1467 67.5484 29.1968 67.4476 29.2219C66.8769 29.3471 66.7425 29.7228 66.7174 30.2571C66.5159 34.4567 66.3396 38.648 66.2809 42.8559C66.2725 43.5656 66.1885 43.6073 65.4751 43.6574C64.8203 43.6991 64.3755 43.4654 64.0061 42.9143C62.151 40.1675 60.2204 37.4707 58.1135 34.9076C57.9876 34.7489 57.8533 34.5903 57.6603 34.3565C57.6099 35.3 57.5511 36.1516 57.5176 37.0032C57.4588 38.3474 57.4168 39.6999 57.3413 41.0441C57.3245 41.353 57.4084 41.5033 57.719 41.5618C58.0464 41.6202 58.3654 41.7371 58.6927 41.8206C58.9613 41.8874 59.0621 42.0711 59.0201 42.3215C58.9781 42.6138 58.7599 42.5386 58.5584 42.5136C55.5954 42.1045 52.6155 41.854 49.6272 41.6954C49.4174 41.687 49.09 41.7872 49.0816 41.4115C49.0732 41.0692 49.3167 41.0024 49.6188 40.969C50.517 40.8771 50.517 40.8688 50.1477 40.0506C49.9042 39.5079 49.6608 38.9569 49.4174 38.4142C49.3502 38.2555 49.2747 38.1387 49.0648 38.1387C47.789 38.1637 46.5215 38.122 45.2456 38.1971C45.0022 38.2138 44.9098 38.2889 44.8511 38.5144C44.7 39.0904 44.5489 39.6749 44.3642 40.2343C44.2383 40.6016 44.381 40.7018 44.7084 40.7352C44.9182 40.7519 45.1197 40.802 45.3295 40.8271C45.5897 40.8605 45.7492 41.0107 45.7324 41.2696C45.7156 41.5618 45.4722 41.495 45.2876 41.495C44.0536 41.495 42.8281 41.3864 41.5942 41.4449C41.4263 41.4532 41.2333 41.4699 41.1997 41.2362C41.1661 41.0191 41.2584 40.7853 41.4599 40.777C42.207 40.7436 42.3832 40.1675 42.6351 39.6498C43.9361 36.9781 45.0861 34.2313 46.3032 31.5178C46.597 30.8666 47.0419 30.5828 47.7218 30.5577C48.3094 30.541 48.897 30.5327 49.4845 30.4826C49.9126 30.4492 50.1309 30.5828 50.282 31.0086C51.4152 34.1979 52.5735 37.3872 53.7319 40.5766C53.9082 41.0692 54.5461 41.4866 55.0749 41.4532C55.1337 41.4532 55.184 41.4282 55.2428 41.4198C55.5702 41.3864 56.015 41.4783 56.1913 41.2362C56.3424 41.0274 56.2417 40.6183 56.2333 40.3011C56.1326 37.2871 56.0151 34.2647 55.9227 31.2507C55.9143 30.9501 55.7968 30.8666 55.5198 30.8666C55.3267 30.8666 55.1337 30.8332 54.9406 30.7998C54.6972 30.7581 54.6468 30.5744 54.6384 30.3657C54.63 30.1403 54.7895 30.0818 54.9658 30.0651C56.1326 29.9399 57.2993 29.823 58.4661 29.6894C58.7683 29.656 58.9278 29.8146 59.0872 30.0234C60.6401 31.9437 61.9916 34.0059 63.301 36.0931C63.8718 37.0115 64.4342 37.9466 65.005 38.8734C65.047 38.9903 65.0721 39.1155 65.2065 39.1739ZM46.958 32.6283C46.7901 32.7285 46.7901 32.8871 46.7397 33.004C46.3368 34.1144 45.9339 35.2248 45.5394 36.3353C45.4386 36.6108 45.1868 36.9364 45.3127 37.1451C45.447 37.3622 45.8499 37.2453 46.1353 37.2704C47.0503 37.3371 47.9652 37.3622 48.9557 37.4039C48.259 35.7759 47.5707 34.2229 46.958 32.6283Z" fill="#ED1D30"/>
<path d="M72.9289 39.3157C72.3161 39.3157 71.7034 39.3157 71.0822 39.3157C70.9227 39.3157 70.78 39.299 70.7465 39.5245C70.5702 40.6599 70.2932 41.7871 70.1421 42.9309C70.1001 43.2148 70.1841 43.3734 70.4527 43.4652C70.7045 43.5487 70.9395 43.674 71.1829 43.7658C71.3844 43.8409 71.5019 43.9829 71.5523 44.1832C71.6446 44.5339 71.5019 44.6925 71.1494 44.6091C70.0665 44.3419 68.9669 44.1248 67.8673 43.9411C67.7162 43.9161 67.5651 43.9077 67.414 43.8743C67.2378 43.8409 67.0279 43.8242 67.0279 43.5738C67.0279 43.3483 67.0615 43.0728 67.3469 43.0645C67.9764 43.0478 68.1024 42.6053 68.2702 42.1294C69.5545 38.3973 70.5534 34.5818 71.5942 30.783C71.8293 29.9397 72.0559 29.0965 72.2658 28.2449C72.4336 27.5853 72.8198 27.1679 73.4913 27.0259C74.146 26.8923 74.8007 26.7504 75.4555 26.6252C75.7912 26.5584 75.9591 26.6836 76.043 27.0343C77.1846 32.1856 78.2003 37.3621 79.2244 42.5385C79.3755 43.2982 79.5601 44.058 79.6609 44.8261C79.7364 45.3521 80.0554 45.6276 80.4667 45.8614C80.7269 46.0117 80.9032 46.1954 80.9116 46.5126C80.9199 46.8967 80.8192 46.9969 80.4331 46.8883C79.5182 46.6379 78.6116 46.3707 77.6967 46.1202C76.8992 45.9032 76.1102 45.6944 75.296 45.5525C75.0442 45.5107 74.8679 45.4189 74.9099 45.1183C74.9518 44.8595 75.0106 44.6174 75.3547 44.6341C75.5646 44.6424 75.7744 44.6091 75.9843 44.6341C76.2949 44.6675 76.3704 44.559 76.2949 44.2584C75.9927 43.0728 75.7073 41.8873 75.4135 40.7017C75.3799 40.5681 75.338 40.4345 75.3044 40.3009C75.0861 39.441 75.0861 39.4326 74.1796 39.3992C73.7599 39.3825 73.3402 39.3992 72.9205 39.3992C72.9289 39.3825 72.9289 39.3491 72.9289 39.3157ZM72.7946 30.3655C72.7023 30.4073 72.7022 30.4824 72.6855 30.5492C72.165 32.9037 71.6614 35.2664 71.1242 37.6209C71.0486 37.9632 71.1662 38.03 71.4432 38.0634C72.4504 38.2053 73.4577 38.3473 74.4734 38.4474C74.8007 38.4808 74.8511 38.414 74.7756 38.1135C74.1124 35.5336 73.4577 32.9538 72.7946 30.3655Z" fill="#ED1D30"/>
<path d="M24.0256 35.2835C23.992 33.9059 24.0004 32.3697 23.8493 30.8502C23.8241 30.6164 23.7486 30.4995 23.5136 30.4578C23.2785 30.416 23.0519 30.3492 22.8253 30.2824C22.5399 30.2073 22.4559 29.9902 22.4979 29.7314C22.5399 29.4726 22.7497 29.5143 22.926 29.5394C24.5376 29.7147 26.1493 29.8984 27.7609 30.0821C27.9456 30.1071 28.1303 30.1405 28.1219 30.3993C28.1135 30.6331 28.0043 30.7834 27.7609 30.8335C27.5763 30.8752 27.2825 30.7834 27.2153 30.942C27.1314 31.1424 27.1901 31.4012 27.2153 31.635C27.3748 33.3382 27.5007 35.0497 27.4587 36.7613C27.3832 39.4831 26.0905 41.4034 23.5555 42.447C22.2041 43.0064 20.7939 43.2318 19.3334 43.1483C17.6042 43.0398 16.4123 41.921 15.9506 40.0174C15.5729 38.4478 15.5729 36.8448 15.6484 35.2501C15.7324 33.4133 15.8583 31.5849 16.1017 29.7648C16.1269 29.5644 16.0681 29.4475 15.8751 29.3807C15.682 29.3056 15.4805 29.2305 15.2959 29.1386C15.0189 29.005 14.9769 28.7546 15.0357 28.5041C15.1028 28.2369 15.3294 28.3371 15.5225 28.3705C17.1761 28.6544 18.8297 28.9299 20.4833 29.1971C20.7268 29.2388 20.9366 29.2722 20.8947 29.5895C20.8527 29.8733 20.7016 29.9735 20.4078 29.9819C19.5096 29.9902 19.518 29.9986 19.4677 30.9003C19.3502 32.9708 19.283 35.0414 19.3166 37.112C19.3334 38.3059 19.4005 39.4998 19.8034 40.652C19.8538 40.7939 19.9126 40.9358 19.9713 41.0778C20.6093 42.422 22.3216 42.5723 23.203 41.3533C23.6814 40.6854 23.8158 39.9006 23.9165 39.1157C24.0676 37.8801 24.034 36.6611 24.0256 35.2835Z" fill="#ED1D30"/>
<path d="M40.3602 43.2817C44.4817 43.2901 47.5455 43.3736 50.6009 43.5907C53.9249 43.8244 57.2405 44.1751 60.5477 44.6426C68.0184 45.6863 75.3547 47.3394 82.5819 49.5018C82.6659 49.5268 82.7414 49.5686 82.8169 49.5769C82.9848 49.5936 83.0352 49.6771 82.9764 49.8274C82.9261 49.9693 82.8505 49.9944 82.691 49.9526C81.9272 49.7523 81.1549 49.5686 80.3827 49.3849C76.6893 48.4832 72.9708 47.7234 69.2271 47.0722C66.4907 46.5963 63.7542 46.1956 61.001 45.8532C58.9613 45.6028 56.9215 45.4024 54.8734 45.2354C52.4392 45.035 49.9965 44.8764 47.5539 44.7846C44.2131 44.6593 40.8723 44.6009 37.5315 44.7178C35.7435 44.7762 33.9556 44.8263 32.1677 44.9265C30.1615 45.0434 28.1554 45.1937 26.1492 45.3941C24.5796 45.5527 23.0099 45.7197 21.4486 45.9117C19.4173 46.1538 17.3859 46.446 15.363 46.78C12.3411 47.2726 9.3361 47.8487 6.33945 48.5166C4.40883 48.9424 2.48661 49.4016 0.581181 49.9025C0.488847 49.9276 0.38812 49.9359 0.295786 49.9693C0.127907 50.0528 0.0775427 49.9526 0.0271789 49.8274C-0.0567609 49.6354 0.0691487 49.627 0.195058 49.5936C1.00927 49.3515 1.8151 49.101 2.62931 48.8673C7.27957 47.5231 11.997 46.4126 16.7564 45.5443C19.6187 45.0183 22.5062 44.6009 25.3938 44.2586C28.5415 43.8829 31.6976 43.6241 34.8706 43.4654C37.0614 43.3318 39.2438 43.3151 40.3602 43.2817Z" fill="#06A653"/>
<path d="M10.2342 28.2117C10.2091 28.8045 10.1671 29.3722 10.1587 29.9316C10.0831 34.4485 9.95723 38.9736 9.95723 43.4988C9.95723 43.8996 10.0915 44.0081 10.4525 43.9747C10.6204 43.958 10.7882 43.9831 10.9561 43.9747C11.2583 43.958 11.3338 44.1584 11.3674 44.3922C11.401 44.6594 11.2499 44.7679 11.0149 44.8096C9.24374 45.1353 7.4894 45.5277 5.76864 46.062C5.60915 46.1121 5.4077 46.1789 5.33215 45.9702C5.23142 45.6946 5.28179 45.4024 5.542 45.2271C5.79382 45.0518 6.07082 44.9182 6.34782 44.7929C6.58285 44.6844 6.6584 44.5341 6.6584 44.2753C6.63322 42.1213 6.63322 39.9588 6.60804 37.8048C6.56607 34.4652 6.50731 31.1255 6.48213 27.7859C6.48213 27.4185 6.36461 27.2933 6.02885 27.2766C5.55039 27.2599 5.08033 27.2349 4.61027 27.1848C4.14021 27.1347 3.93036 27.3601 3.80445 27.7776C3.52745 28.7377 3.22526 29.6895 2.93147 30.6496C2.87272 30.85 2.85593 31.1506 2.53696 31.0921C2.26835 31.042 2.10887 30.8083 2.11726 30.5327C2.18441 28.8629 2.25996 27.1931 2.3439 25.5317C2.36068 25.1559 2.6209 25.1476 2.92308 25.2478C4.45078 25.7738 6.00367 26.2497 7.57334 26.6337C9.59629 27.1347 11.6276 27.5688 13.6842 27.861C14.3641 27.9612 14.3976 28.003 14.4144 28.6709C14.448 29.7312 14.4732 30.7832 14.5236 31.8435C14.5319 32.1274 14.4732 32.3528 14.1794 32.4196C13.8436 32.4948 13.8017 32.2193 13.7261 31.9938C13.4491 31.1923 13.1637 30.3992 12.8951 29.5893C12.786 29.2637 12.6013 29.0383 12.2824 28.9047C11.6108 28.6542 10.9477 28.4037 10.2342 28.2117Z" fill="#ED1D30"/>
<path d="M41.678 28.9131C36.8431 28.9047 32.3019 28.6793 27.7776 28.2285C18.4603 27.3017 9.34442 25.4065 0.396442 22.693C0.346078 22.6763 0.28732 22.6596 0.236957 22.6346C0.136229 22.5928 -0.0316506 22.6262 0.0355012 22.4092C0.094259 22.2004 0.220169 22.2422 0.354472 22.2756C1.27781 22.501 2.19275 22.7348 3.11609 22.9602C7.52293 24.0372 11.9801 24.9139 16.4625 25.6236C21.9186 26.4835 27.4083 27.0512 32.9315 27.3435C38.6898 27.644 44.448 27.6357 50.2147 27.3184C53.8577 27.118 57.4923 26.8008 61.1185 26.3583C68.3373 25.4733 75.4638 24.1207 82.5063 22.3257C82.5567 22.309 82.6154 22.3006 82.6658 22.2839C82.8169 22.2338 82.9344 22.2505 82.9848 22.4342C83.0351 22.6429 82.8588 22.6179 82.7581 22.6513C81.3144 23.0687 79.8622 23.4945 78.41 23.887C73.5331 25.2311 68.5975 26.2915 63.6031 27.1097C60.4553 27.6273 57.2992 28.0197 54.1263 28.3203C49.8873 28.7127 45.6484 28.9047 41.678 28.9131Z" fill="#ED1D30"/>
<path d="M31.5801 30.3576C33.7374 30.4077 35.5757 30.4411 37.3636 30.8836C38.7402 31.2259 40.0245 31.7519 40.9226 32.9208C42.0558 34.4069 42.039 36.778 40.9058 38.4479C39.9405 39.8672 38.5304 40.6437 36.9355 41.1446C35.668 41.5454 34.3669 41.6873 33.0491 41.704C31.7732 41.7207 30.5141 41.8626 29.2466 41.9879C29.062 42.0046 28.8269 42.088 28.7766 41.7958C28.7346 41.5203 28.8689 41.37 29.1543 41.2865C30.0524 41.0277 30.0692 41.0194 30.0608 40.0676C30.0356 37.2122 29.9769 34.3652 29.9517 31.5098C29.9517 31.251 29.851 31.1675 29.6243 31.1424C29.4061 31.1174 29.1795 31.0756 28.9612 31.0422C28.7094 31.0088 28.6003 30.8419 28.6003 30.6081C28.6003 30.3326 28.8101 30.3159 29.0116 30.3159C29.9769 30.2992 30.9422 30.3242 31.5801 30.3576ZM33.4688 36.1936C33.4436 36.1936 33.4184 36.1936 33.3932 36.1936C33.3932 37.6213 33.41 39.0573 33.3848 40.485C33.3765 40.8774 33.5443 40.9609 33.8717 40.9442C35.114 40.8858 36.1549 40.4015 36.9103 39.4163C38.0099 37.9887 38.1778 36.3355 37.9344 34.624C37.6574 32.6369 36.1716 31.3261 34.1571 31.2009C33.7962 31.1758 33.6954 31.2927 33.6786 31.6183C33.6199 33.1378 33.5443 34.6657 33.4688 36.1936Z" fill="#ED1D30"/>
<path d="M37.3636 1.64495C38.3289 1.33603 39.3026 1.08556 40.226 0.70985C41.0905 0.359189 41.8628 0.400935 42.7442 0.718199C46.2025 1.97891 49.6776 3.18952 52.9848 4.81759C53.5388 5.08476 54.076 5.37698 54.5629 5.76103C54.6804 5.85287 54.8483 5.95306 54.7811 6.12839C54.7224 6.31207 54.5209 6.27033 54.3782 6.26198C53.1527 6.23693 51.9775 5.91132 50.8024 5.61075C47.7721 4.83429 44.8091 3.8658 41.846 2.88061C41.5942 2.79712 41.3759 2.79712 41.1241 2.88061C37.7581 3.98268 34.3418 4.89273 30.8331 5.46047C30.1028 5.57736 29.3642 5.68589 28.6255 5.6358C28.4744 5.62745 28.2729 5.6358 28.2226 5.47717C28.1638 5.28514 28.3653 5.18495 28.4996 5.10981C29.6328 4.40849 30.8835 3.97433 32.1258 3.50679C32.898 3.22292 33.6703 2.93905 34.4509 2.68858C34.7279 2.59674 34.8202 2.4715 34.8202 2.19598C34.8118 1.66164 34.9126 1.144 35.1728 0.668105C35.3742 0.300746 35.6429 0.000179472 36.1045 0.000179472C36.5746 -0.00816959 36.8768 0.275699 37.095 0.659756C37.2713 0.943624 37.3133 1.27759 37.3636 1.64495Z" fill="#06A653"/>
</svg>
